<?xml version="1.0" encoding="UTF-8" standalone="no"?>
<!DOCTYPE svg PUBLIC "-//W3C//DTD SVG 1.1//EN" "http://www.w3.org/Graphics/SVG/1.1/DTD/svg11.dtd">
<svg width="100%" height="100%" viewBox="0 0 190 190" version="1.1" xmlns="http://www.w3.org/2000/svg" xmlns:xlink="http://www.w3.org/1999/xlink" xml:space="preserve" xmlns:serif="http://www.serif.com/" style="fill-rule:evenodd;clip-rule:evenodd;stroke-linecap:round;stroke-linejoin:round;stroke-miterlimit:10;">
    <g transform="matrix(0.961429,0,0,0.97393,4.59738,3.25865)">
        <rect x="-4.782" y="-3.346" width="196.899" height="194.367" style="fill:rgb(255,184,203);"/>
    </g>
    <g transform="matrix(1,0,0,1,-305.348,-101.476)">
        <g transform="matrix(0,-1,-1,0,400,101.476)">
            <path d="M-94.652,-94.652C-146.927,-94.652 -189.304,-52.275 -189.304,-0C-189.304,52.275 -146.927,94.652 -94.652,94.652C-42.377,94.652 -0,52.275 -0,-0C-0,-52.275 -42.377,-94.652 -94.652,-94.652" style="fill:rgb(255,184,203);fill-rule:nonzero;"/>
        </g>
        <g transform="matrix(0,-1,-1,0,338.554,137.538)">
            <path d="M-23.554,-23.554C-36.563,-23.554 -47.108,-13.009 -47.108,0C-47.108,13.008 -36.563,23.554 -23.554,23.554C-10.546,23.554 0,13.008 0,0C0,-13.009 -10.546,-23.554 -23.554,-23.554" style="fill:rgb(215,134,79);fill-rule:nonzero;"/>
        </g>
        <g transform="matrix(0,-1,-1,0,341.777,152.961)">
            <path d="M-11.353,-11.352C-17.623,-11.352 -22.705,-6.269 -22.705,0C-22.705,6.27 -17.623,11.353 -11.353,11.353C-5.083,11.353 0,6.27 0,0C0,-6.269 -5.083,-11.352 -11.353,-11.352" style="fill:rgb(255,197,174);fill-rule:nonzero;"/>
        </g>
        <g transform="matrix(0,1,1,0,461.446,137.538)">
            <path d="M23.554,-23.554C36.563,-23.554 47.108,-13.009 47.108,0C47.108,13.008 36.563,23.554 23.554,23.554C10.546,23.554 0,13.008 0,0C0,-13.009 10.546,-23.554 23.554,-23.554" style="fill:rgb(215,134,79);fill-rule:nonzero;"/>
        </g>
        <g transform="matrix(0,1,1,0,458.223,152.961)">
            <path d="M11.353,-11.352C17.623,-11.352 22.705,-6.269 22.705,0C22.705,6.27 17.623,11.353 11.353,11.353C5.083,11.353 -0,6.27 -0,0C-0,-6.269 5.083,-11.352 11.353,-11.352" style="fill:rgb(255,197,174);fill-rule:nonzero;"/>
        </g>
        <g transform="matrix(0,-1,-1,0,399.286,136.234)">
            <path d="M-70.663,-70.663C-107.36,-70.663 -137.11,-39.026 -137.11,-0.001C-137.11,39.025 -107.36,70.663 -70.663,70.663C-33.965,70.663 -4.215,39.025 -4.215,-0.001C-4.215,-39.026 -33.965,-70.663 -70.663,-70.663" style="fill:rgb(215,134,79);fill-rule:nonzero;"/>
        </g>
        <g transform="matrix(1,0,0,1,398.679,251.473)">
            <path d="M0,-36.089C-19.914,-34.276 -27.755,-22.385 -27.755,-14.421C-27.755,-6.456 -21.299,0 -13.335,0C-6.577,0 -0.921,-4.654 0.642,-10.928C2.206,-4.654 7.862,0 14.619,0C22.583,0 29.04,-6.456 29.04,-14.421C29.04,-22.385 17.152,-36.089 0,-36.089" style="fill:rgb(255,249,243);fill-rule:nonzero;"/>
        </g>
        <g transform="matrix(0,-1,-1,0,364.448,202.8)">
            <path d="M-8.278,-8.278C-12.849,-8.278 -16.556,-4.572 -16.556,0C-16.556,4.572 -12.849,8.278 -8.278,8.278C-3.705,8.278 0,4.572 0,0C0,-4.572 -3.705,-8.278 -8.278,-8.278" style="fill:rgb(53,25,14);fill-rule:nonzero;"/>
        </g>
        <g transform="matrix(1,0,0,1,359.656,205.439)">
            <path d="M0,5.638C0,5.638 -0.077,5.506 -0.18,5.276C-0.286,5.067 -0.383,4.668 -0.393,4.23C-0.406,4.007 -0.4,3.762 -0.353,3.509C-0.324,3.25 -0.233,2.994 -0.145,2.723C-0.031,2.466 0.084,2.189 0.259,1.946C0.412,1.686 0.623,1.464 0.824,1.234C1.053,1.033 1.275,0.821 1.535,0.668C1.777,0.491 2.055,0.378 2.311,0.263C2.583,0.175 2.839,0.084 3.098,0.054C3.352,0.007 3.596,0 3.82,0.015C4.039,0.008 4.243,0.052 4.419,0.092C4.593,0.12 4.742,0.177 4.862,0.229C5.102,0.332 5.228,0.41 5.228,0.41C5.228,0.41 5.097,0.501 4.889,0.626C4.68,0.744 4.4,0.931 4.098,1.129C3.49,1.543 2.826,2.062 2.238,2.648C1.65,3.235 1.129,3.898 0.716,4.507C0.519,4.814 0.335,5.057 0.215,5.296C0.09,5.514 0,5.638 0,5.638" style="fill:white;fill-rule:nonzero;"/>
        </g>
        <g transform="matrix(0,-1,-1,0,434.196,202.8)">
            <path d="M-8.278,-8.278C-12.849,-8.278 -16.556,-4.572 -16.556,0C-16.556,4.572 -12.849,8.278 -8.278,8.278C-3.705,8.278 0,4.572 0,0C0,-4.572 -3.705,-8.278 -8.278,-8.278" style="fill:rgb(53,25,14);fill-rule:nonzero;"/>
        </g>
        <g transform="matrix(1,0,0,1,429.404,205.439)">
            <path d="M0,5.638C0,5.638 -0.077,5.506 -0.18,5.276C-0.286,5.067 -0.383,4.668 -0.393,4.23C-0.406,4.007 -0.4,3.762 -0.353,3.509C-0.324,3.25 -0.233,2.994 -0.145,2.723C-0.031,2.466 0.084,2.189 0.259,1.946C0.412,1.686 0.623,1.464 0.824,1.234C1.053,1.033 1.275,0.821 1.535,0.668C1.777,0.491 2.055,0.378 2.311,0.263C2.583,0.175 2.839,0.084 3.098,0.054C3.352,0.007 3.596,0 3.82,0.015C4.039,0.008 4.243,0.052 4.419,0.092C4.593,0.12 4.742,0.177 4.862,0.229C5.102,0.332 5.228,0.41 5.228,0.41C5.228,0.41 5.097,0.501 4.889,0.626C4.68,0.744 4.4,0.931 4.098,1.129C3.49,1.543 2.826,2.062 2.238,2.648C1.65,3.235 1.129,3.898 0.716,4.507C0.519,4.814 0.335,5.057 0.215,5.296C0.09,5.514 0,5.638 0,5.638" style="fill:white;fill-rule:nonzero;"/>
        </g>
        <g transform="matrix(1,0,0,1,398.578,245.954)">
            <path d="M0,-11.402C0.452,-10.498 0,-7.36 0,-7.36C0,-7.36 -3.27,0 -12.534,-3.249" style="fill:none;fill-rule:nonzero;stroke:rgb(86,79,74);stroke-width:3px;"/>
        </g>
        <g transform="matrix(1,0,0,1,400.065,245.954)">
            <path d="M0,-11.402C-0.452,-10.498 0,-7.36 0,-7.36C0,-7.36 3.27,0 12.534,-3.249" style="fill:none;fill-rule:nonzero;stroke:rgb(86,79,74);stroke-width:3px;"/>
        </g>
        <g transform="matrix(1,0,0,1,405.205,234.879)">
            <path d="M0,-9.312L-11.933,-9.312C-13.57,-9.312 -14.579,-7.842 -13.729,-6.69C-11.699,-3.936 -8.375,0 -5.967,0C-3.558,0 -0.234,-3.936 1.796,-6.69C2.645,-7.842 1.637,-9.312 0,-9.312" style="fill:rgb(165,122,93);fill-rule:nonzero;"/>
        </g>
    </g>
</svg>
