<?xml version="1.0" encoding="UTF-8" standalone="no"?>
<!DOCTYPE svg PUBLIC "-//W3C//DTD SVG 1.1//EN" "http://www.w3.org/Graphics/SVG/1.1/DTD/svg11.dtd">
<svg width="100%" height="100%" viewBox="0 0 190 190" version="1.1" xmlns="http://www.w3.org/2000/svg" xmlns:xlink="http://www.w3.org/1999/xlink" xml:space="preserve" xmlns:serif="http://www.serif.com/" style="fill-rule:evenodd;clip-rule:evenodd;stroke-miterlimit:10;">
    <g transform="matrix(0.961429,0,0,0.97393,4.59738,3.25865)">
        <rect x="-4.782" y="-3.346" width="196.899" height="194.367" style="fill:rgb(216,239,145);"/>
    </g>
    <g transform="matrix(1,0,0,1,-60.1473,-548.434)">
        <g transform="matrix(0,-1,-1,0,154.799,548.434)">
            <path d="M-94.652,-94.652C-146.927,-94.652 -189.304,-52.275 -189.304,-0C-189.304,52.275 -146.927,94.652 -94.652,94.652C-42.377,94.652 -0,52.275 -0,-0C-0,-52.275 -42.377,-94.652 -94.652,-94.652" style="fill:rgb(216,239,145);fill-rule:nonzero;"/>
        </g>
        <g transform="matrix(-0.51266,-0.858592,-0.858592,0.51266,131.464,571.685)">
            <path d="M-33.815,20.31C-20.481,10.834 -1.139,10.834 12.194,20.31" style="fill:none;fill-rule:nonzero;stroke:rgb(53,25,14);stroke-width:6px;"/>
        </g>
        <g transform="matrix(0.258743,-0.965946,-0.965946,-0.258743,111.451,560.639)">
            <path d="M-8.76,-6.722C-13.769,-6.722 -17.828,-2.662 -17.828,2.346C-17.828,7.355 -13.769,11.415 -8.76,11.415C-3.751,11.415 0.309,7.354 0.308,2.346C0.309,-2.662 -3.751,-6.722 -8.76,-6.722" style="fill:rgb(53,25,14);fill-rule:nonzero;"/>
        </g>
        <g transform="matrix(0.51266,-0.858592,-0.858592,-0.51266,200.625,611.072)">
            <path d="M-11.528,19.193C1.806,28.669 21.148,28.669 34.481,19.193" style="fill:none;fill-rule:nonzero;stroke:rgb(53,25,14);stroke-width:6px;"/>
        </g>
        <g transform="matrix(0.258743,0.965946,0.965946,-0.258743,198.147,560.639)">
            <path d="M8.76,-6.722C13.769,-6.722 17.828,-2.662 17.828,2.346C17.828,7.355 13.769,11.415 8.76,11.415C3.751,11.415 -0.309,7.354 -0.308,2.346C-0.309,-2.662 3.751,-6.722 8.76,-6.722" style="fill:rgb(53,25,14);fill-rule:nonzero;"/>
        </g>
        <g transform="matrix(1,0,0,1,95.9757,711.907)">
            <path d="M0,-92.219C-3.872,-83.906 -6.047,-74.644 -6.047,-64.87C-6.047,-29.043 22.997,0 58.823,0C94.65,0 123.693,-29.043 123.693,-64.87C123.693,-74.644 121.518,-83.906 117.647,-92.219C102.108,-81.426 81.471,-74.848 58.823,-74.848C36.176,-74.848 15.538,-81.426 0,-92.219" style="fill:rgb(255,212,92);fill-rule:nonzero;"/>
        </g>
        <g transform="matrix(-1,0,0,1,154.799,637.06)">
            <path d="M0,-54.892C26.052,-54.892 48.504,-39.527 58.823,-17.371C43.285,-6.578 22.647,0 0,0C-22.647,0 -43.285,-6.578 -58.823,-17.371C-48.504,-39.527 -26.052,-54.892 0,-54.892" style="fill:rgb(53,25,14);fill-rule:nonzero;"/>
        </g>
        <g transform="matrix(0,-1,-1,0,131.101,602.892)">
            <path d="M-8,-8C-12.418,-8 -16,-4.418 -16,0C-16,4.418 -12.418,8 -8,8C-3.582,8 0,4.418 0,0C0,-4.418 -3.582,-8 -8,-8" style="fill:rgb(53,25,14);fill-rule:nonzero;"/>
        </g>
        <g transform="matrix(0,-1,-1,0,131.101,602.892)">
            <circle cx="-8" cy="0" r="8" style="fill:none;stroke:white;stroke-width:2px;"/>
        </g>
        <g transform="matrix(1,0,0,1,126.47,605.423)">
            <path d="M0,5.469C0,5.469 -0.077,5.341 -0.18,5.119C-0.287,4.918 -0.385,4.529 -0.398,4.104C-0.441,3.666 -0.348,3.16 -0.166,2.637C-0.056,2.387 0.055,2.118 0.224,1.881C0.372,1.628 0.577,1.412 0.773,1.189C0.996,0.993 1.211,0.787 1.464,0.639C1.7,0.468 1.97,0.359 2.22,0.248C2.484,0.163 2.733,0.076 2.985,0.048C3.232,0.005 3.469,0 3.687,0.015C3.9,0.01 4.098,0.056 4.269,0.096C4.437,0.125 4.582,0.182 4.699,0.235C4.931,0.338 5.053,0.416 5.053,0.416C5.053,0.416 4.926,0.507 4.725,0.632C4.524,0.75 4.254,0.936 3.965,1.13C3.382,1.538 2.75,2.041 2.187,2.603C1.624,3.165 1.118,3.797 0.711,4.381C0.517,4.675 0.335,4.907 0.215,5.139C0.09,5.349 0,5.469 0,5.469" style="fill:white;fill-rule:nonzero;"/>
        </g>
        <g transform="matrix(0,-1,-1,0,178.498,602.892)">
            <path d="M-8,-8C-12.418,-8 -16,-4.418 -16,0C-16,4.418 -12.418,8 -8,8C-3.582,8 0,4.418 0,0C0,-4.418 -3.582,-8 -8,-8" style="fill:rgb(53,25,14);fill-rule:nonzero;"/>
        </g>
        <g transform="matrix(0,-1,-1,0,178.498,602.892)">
            <circle cx="-8" cy="0" r="8" style="fill:none;stroke:white;stroke-width:2px;"/>
        </g>
        <g transform="matrix(1,0,0,1,173.866,605.423)">
            <path d="M0,5.469C0,5.469 -0.077,5.341 -0.18,5.119C-0.287,4.918 -0.385,4.529 -0.398,4.104C-0.441,3.666 -0.348,3.16 -0.166,2.637C-0.056,2.387 0.055,2.118 0.224,1.881C0.372,1.628 0.577,1.412 0.773,1.189C0.996,0.993 1.211,0.787 1.464,0.639C1.7,0.468 1.97,0.359 2.22,0.248C2.484,0.163 2.733,0.076 2.985,0.048C3.232,0.005 3.469,0 3.687,0.015C3.9,0.01 4.099,0.056 4.269,0.096C4.437,0.125 4.582,0.182 4.699,0.235C4.931,0.338 5.053,0.416 5.053,0.416C5.053,0.416 4.926,0.507 4.725,0.632C4.524,0.75 4.254,0.936 3.965,1.13C3.382,1.538 2.751,2.041 2.187,2.603C1.624,3.165 1.118,3.797 0.711,4.381C0.517,4.675 0.335,4.907 0.215,5.139C0.09,5.349 0,5.469 0,5.469" style="fill:white;fill-rule:nonzero;"/>
        </g>
        <g>
            <clipPath id="_clip1">
                <path d="M154.799,637.06C132.151,637.06 111.514,630.481 95.976,619.689C92.104,628.001 89.929,637.263 89.929,647.038C89.929,682.864 118.972,711.908 154.799,711.908C190.625,711.908 219.669,682.864 219.669,647.038C219.669,637.263 217.494,628.001 213.622,619.689C198.085,630.481 177.447,637.06 154.799,637.06Z" clip-rule="nonzero"/>
            </clipPath>
            <g clip-path="url(#_clip1)">
                <g transform="matrix(1,0,0,1,75.3591,644.8)">
                    <path d="M0,0L163.588,0" style="fill:none;fill-rule:nonzero;stroke:rgb(53,25,14);stroke-width:9px;stroke-linecap:round;"/>
                </g>
                <g transform="matrix(1,0,0,1,85.3651,665.813)">
                    <path d="M0,0L153.582,0" style="fill:none;fill-rule:nonzero;stroke:rgb(53,25,14);stroke-width:9px;stroke-linecap:round;"/>
                </g>
                <g transform="matrix(1,0,0,1,85.3651,684.824)">
                    <path d="M0,0L153.582,0" style="fill:none;fill-rule:nonzero;stroke:rgb(53,25,14);stroke-width:9px;stroke-linecap:round;"/>
                </g>
                <g transform="matrix(1,0,0,1,85.3651,705.837)">
                    <path d="M0,0L153.582,0" style="fill:none;fill-rule:nonzero;stroke:rgb(53,25,14);stroke-width:9px;stroke-linecap:round;"/>
                </g>
            </g>
        </g>
        <g transform="matrix(-0.451227,0.892409,0.892409,0.451227,139,660.002)">
            <path d="M35.808,-45.202C16.126,-45.201 -19.84,-9.565 -19.84,-9.565C-19.84,-9.565 16.126,26.071 35.808,26.071C55.49,26.071 71.444,10.116 71.444,-9.565C71.444,-29.247 55.49,-45.202 35.808,-45.202" style="fill:rgb(115,211,221);fill-rule:nonzero;"/>
        </g>
        <g transform="matrix(-0.451227,-0.892409,-0.892409,0.451227,170.599,660.002)">
            <path d="M-35.808,-45.202C-16.126,-45.201 19.84,-9.565 19.84,-9.565C19.84,-9.565 -16.126,26.071 -35.808,26.071C-55.49,26.071 -71.444,10.116 -71.444,-9.565C-71.444,-29.247 -55.49,-45.202 -35.808,-45.202" style="fill:rgb(115,211,221);fill-rule:nonzero;"/>
        </g>
    </g>
</svg>
