<?xml version="1.0" encoding="UTF-8" standalone="no"?>
<!DOCTYPE svg PUBLIC "-//W3C//DTD SVG 1.1//EN" "http://www.w3.org/Graphics/SVG/1.1/DTD/svg11.dtd">
<svg width="100%" height="100%" viewBox="0 0 190 190" version="1.1" xmlns="http://www.w3.org/2000/svg" xmlns:xlink="http://www.w3.org/1999/xlink" xml:space="preserve" xmlns:serif="http://www.serif.com/" style="fill-rule:evenodd;clip-rule:evenodd;stroke-linecap:round;stroke-linejoin:round;stroke-miterlimit:10;">
    <g transform="matrix(0.961429,0,0,0.97393,4.59738,3.25865)">
        <rect x="-4.782" y="-3.346" width="196.899" height="194.367" style="fill:rgb(216,239,145);"/>
    </g>
    <g transform="matrix(1,0,0,1,-74.7322,-103.436)">
        <g transform="matrix(0,-1,-1,0,169.384,103.436)">
            <path d="M-94.652,-94.652C-146.927,-94.652 -189.304,-52.275 -189.304,-0C-189.304,52.275 -146.927,94.652 -94.652,94.652C-42.377,94.652 -0,52.275 -0,-0C-0,-52.275 -42.377,-94.652 -94.652,-94.652" style="fill:rgb(216,239,145);fill-rule:nonzero;"/>
        </g>
        <g transform="matrix(1,0,0,1,229.631,224.638)">
            <path d="M0,-48.102C-11.187,-74.75 -33.526,-85.897 -60.247,-85.897C-86.968,-85.897 -109.307,-74.75 -120.493,-48.102C-124.272,-39.101 -128.037,-24.517 -127.72,-14.837C-126.608,19.099 -101.049,37.795 -60.247,37.795C-19.444,37.795 6.115,19.099 7.227,-14.837C7.544,-24.517 3.779,-39.101 0,-48.102" style="fill:rgb(249,199,145);fill-rule:nonzero;"/>
        </g>
        <g transform="matrix(0,-1,-1,0,135.68,198.743)">
            <path d="M-8,-8C-12.418,-8 -16,-4.418 -16,0C-16,4.418 -12.418,8 -8,8C-3.582,8 0,4.418 0,0C0,-4.418 -3.582,-8 -8,-8" style="fill:rgb(53,25,14);fill-rule:nonzero;"/>
        </g>
        <g transform="matrix(1,0,0,1,131.048,201.274)">
            <path d="M0,5.469C0,5.469 -0.077,5.341 -0.18,5.118C-0.287,4.917 -0.385,4.529 -0.398,4.104C-0.441,3.666 -0.347,3.16 -0.166,2.637C-0.056,2.387 0.055,2.118 0.224,1.881C0.372,1.628 0.577,1.412 0.773,1.189C0.996,0.993 1.211,0.787 1.464,0.639C1.7,0.468 1.97,0.359 2.22,0.248C2.484,0.163 2.733,0.076 2.985,0.048C3.232,0.005 3.469,0 3.687,0.016C3.9,0.01 4.099,0.055 4.269,0.096C4.437,0.125 4.582,0.182 4.699,0.235C4.931,0.338 5.053,0.416 5.053,0.416C5.053,0.416 4.926,0.507 4.725,0.632C4.524,0.75 4.255,0.935 3.965,1.13C3.382,1.538 2.751,2.042 2.187,2.603C1.624,3.165 1.118,3.797 0.711,4.381C0.517,4.675 0.335,4.907 0.215,5.138C0.09,5.349 0,5.469 0,5.469" style="fill:white;fill-rule:nonzero;"/>
        </g>
        <g transform="matrix(0,-1,-1,0,203.088,198.743)">
            <path d="M-8,-8C-12.418,-8 -16,-4.418 -16,0C-16,4.418 -12.418,8 -8,8C-3.582,8 0,4.418 0,0C0,-4.418 -3.582,-8 -8,-8" style="fill:rgb(53,25,14);fill-rule:nonzero;"/>
        </g>
        <g transform="matrix(1,0,0,1,198.457,201.274)">
            <path d="M0,5.469C0,5.469 -0.077,5.341 -0.18,5.118C-0.287,4.917 -0.385,4.529 -0.398,4.104C-0.441,3.666 -0.348,3.16 -0.167,2.637C-0.056,2.387 0.055,2.118 0.224,1.881C0.372,1.628 0.577,1.412 0.773,1.189C0.996,0.993 1.211,0.787 1.464,0.639C1.7,0.468 1.97,0.359 2.22,0.248C2.484,0.163 2.733,0.076 2.985,0.048C3.232,0.005 3.469,0 3.687,0.016C3.9,0.01 4.098,0.055 4.269,0.096C4.437,0.125 4.582,0.182 4.699,0.235C4.931,0.338 5.053,0.416 5.053,0.416C5.053,0.416 4.926,0.507 4.725,0.632C4.524,0.75 4.254,0.935 3.965,1.13C3.382,1.538 2.751,2.042 2.187,2.603C1.624,3.165 1.118,3.797 0.711,4.381C0.517,4.675 0.335,4.907 0.215,5.138C0.09,5.349 0,5.469 0,5.469" style="fill:white;fill-rule:nonzero;"/>
        </g>
        <g transform="matrix(-0.982507,-0.186224,-0.186224,0.982507,95.6758,174.473)">
            <path d="M-1.473,-12.529C3.468,-14.84 8.978,-15.865 14.424,-15.605C12.419,-7.431 6.392,-0.24 -1.473,2.845C-5.354,4.365 -11.917,4.191 -16.866,2.119C-13.456,-4.224 -8.003,-9.476 -1.473,-12.529" style="fill:rgb(255,197,174);fill-rule:nonzero;"/>
        </g>
        <g transform="matrix(1,0,0,1,119.678,156.174)">
            <path d="M0,12.494C-1.712,5.094 -29.089,-11.029 -31.785,-10.059C-33.856,-9.314 -34.724,-6.875 -35.051,-4.698C-35.299,-3.048 -35.356,-1.379 -35.267,0.281C-29.869,1.039 -24.645,3.073 -20.222,6.263C-14.375,10.48 -9.995,16.655 -7.826,23.523C-2.525,22.398 1.521,19.067 0,12.494" style="fill:rgb(215,134,79);fill-rule:nonzero;"/>
        </g>
        <g transform="matrix(-0.982519,0.186162,0.186162,0.982519,243.092,174.473)">
            <path d="M1.473,-12.529C-3.466,-14.84 -8.977,-15.866 -14.423,-15.606C-12.418,-7.432 -6.392,-0.24 1.473,2.844C5.354,4.366 11.916,4.192 16.866,2.12C13.456,-4.223 8.003,-9.476 1.473,-12.529" style="fill:rgb(255,197,174);fill-rule:nonzero;"/>
        </g>
        <g transform="matrix(1,0,0,1,219.09,156.174)">
            <path d="M0,12.494C1.712,5.094 29.089,-11.029 31.785,-10.059C33.856,-9.314 34.724,-6.875 35.051,-4.698C35.298,-3.048 35.356,-1.379 35.267,0.281C29.869,1.039 24.645,3.073 20.222,6.263C14.375,10.48 9.995,16.655 7.826,23.523C2.525,22.398 -1.521,19.067 0,12.494" style="fill:rgb(215,134,79);fill-rule:nonzero;"/>
        </g>
        <g transform="matrix(1,0,0,1,229.631,190.004)">
            <path d="M0,-13.468C-11.187,-40.116 -33.525,-51.263 -60.247,-51.263C-86.968,-51.263 -109.307,-40.116 -120.493,-13.468C-124.272,-4.467 -128.037,10.117 -127.72,19.797C-127.694,20.592 -127.641,21.37 -127.589,22.148C-124.758,4.803 -113.532,-11.101 -97.918,-19.253C-91.106,-22.81 -82.339,-24.788 -76.053,-20.369C-70.885,-16.736 -69.095,-9.994 -68.02,-3.769C-65.825,8.944 -65.079,21.906 -65.8,34.787C-65.896,36.487 -66.283,35.757 -66.275,37.459C-64.081,37.795 -61.925,36.897 -60.247,35.401C-58.568,36.897 -56.412,37.795 -54.218,37.459C-54.21,35.757 -54.598,36.487 -54.693,34.787C-55.414,21.906 -54.668,8.944 -52.473,-3.769C-51.398,-9.994 -49.608,-16.736 -44.441,-20.369C-38.154,-24.788 -29.387,-22.81 -22.575,-19.253C-6.961,-11.101 4.265,4.803 7.095,22.147C7.148,21.369 7.201,20.591 7.227,19.797C7.544,10.117 3.779,-4.467 0,-13.468" style="fill:rgb(215,134,79);fill-rule:nonzero;"/>
        </g>
        <g transform="matrix(0,-1,-1,0,169.384,215.431)">
            <path d="M-18.892,-18.892C-27.042,-18.892 -33.649,-10.434 -33.649,0C-33.649,10.434 -27.042,18.892 -18.892,18.892C-10.742,18.892 -4.135,10.434 -4.135,0C-4.135,-10.434 -10.742,-18.892 -18.892,-18.892" style="fill:rgb(255,250,240);fill-rule:nonzero;"/>
        </g>
        <g transform="matrix(1,0,0,1,168.665,238.268)">
            <path d="M0,-11.019C0.437,-10.145 0,-7.113 0,-7.113C0,-7.113 -3.16,0 -12.114,-3.139" style="fill:none;fill-rule:nonzero;stroke:rgb(153,130,113);stroke-width:3px;"/>
        </g>
        <g transform="matrix(1,0,0,1,170.103,238.268)">
            <path d="M0,-11.019C-0.437,-10.145 0,-7.113 0,-7.113C0,-7.113 3.16,0 12.114,-3.139" style="fill:none;fill-rule:nonzero;stroke:rgb(153,130,113);stroke-width:3px;"/>
        </g>
        <g transform="matrix(1,0,0,1,175.07,227.565)">
            <path d="M0,-9L-11.533,-9C-13.115,-9 -14.09,-7.579 -13.269,-6.466C-11.306,-3.804 -8.094,0 -5.766,0C-3.438,0 -0.227,-3.804 1.736,-6.466C2.557,-7.579 1.582,-9 0,-9" style="fill:rgb(165,122,93);fill-rule:nonzero;"/>
        </g>
        <g transform="matrix(1,0,0,1,143.032,124.842)">
            <path d="M0,17.487C4.13,8.878 3.47,-4.928 -2.855,-9.333C-5.547,-11.208 -9.978,-10.654 -11.299,-7.651C-12.832,-4.169 -9.821,0.668 -12.503,3.368C-14.375,5.252 -17.812,4.306 -19.449,2.214C-21.086,0.122 -21.455,-2.656 -21.913,-5.272C-22.371,-7.889 -23.095,-10.682 -25.154,-12.359C-28.151,-15.152 -33.384,-14.175 -36.109,-11.117C-38.833,-8.058 -39.459,-3.623 -39.038,0.451C-37.95,10.985 -28.974,21.479 -18.389,24.381C-17.558,25.714 -16.608,26.961 -15.458,28.046C-12.094,31.219 -6.594,32.639 -2.79,30.01C0.747,27.566 1.589,22.478 0.322,18.369C0.229,18.068 0.11,17.78 0,17.487" style="fill:rgb(165,122,93);fill-rule:nonzero;"/>
        </g>
        <g transform="matrix(1,0,0,1,195.736,124.842)">
            <path d="M0,17.487C-4.13,8.878 -3.47,-4.928 2.855,-9.333C5.547,-11.208 9.978,-10.654 11.299,-7.651C12.832,-4.169 9.821,0.668 12.503,3.368C14.375,5.252 17.812,4.306 19.449,2.214C21.086,0.122 21.455,-2.656 21.913,-5.272C22.371,-7.889 23.095,-10.682 25.155,-12.359C28.151,-15.152 33.384,-14.175 36.109,-11.117C38.833,-8.058 39.459,-3.623 39.038,0.451C37.95,10.985 28.974,21.479 18.389,24.381C17.558,25.714 16.608,26.961 15.458,28.046C12.094,31.219 6.594,32.639 2.79,30.01C-0.747,27.566 -1.589,22.478 -0.322,18.369C-0.229,18.068 -0.11,17.78 0,17.487" style="fill:rgb(165,122,93);fill-rule:nonzero;"/>
        </g>
    </g>
</svg>
