<?xml version="1.0" encoding="UTF-8" standalone="no"?>
<!DOCTYPE svg PUBLIC "-//W3C//DTD SVG 1.1//EN" "http://www.w3.org/Graphics/SVG/1.1/DTD/svg11.dtd">
<svg width="100%" height="100%" viewBox="0 0 190 190" version="1.1" xmlns="http://www.w3.org/2000/svg" xmlns:xlink="http://www.w3.org/1999/xlink" xml:space="preserve" xmlns:serif="http://www.serif.com/" style="fill-rule:evenodd;clip-rule:evenodd;stroke-linejoin:round;stroke-miterlimit:2;">
    <g transform="matrix(0.961429,0,0,0.97393,4.59738,3.25865)">
        <rect x="-4.782" y="-3.346" width="196.899" height="194.367" style="fill:rgb(84,211,208);"/>
    </g>
    <g transform="matrix(1,0,0,1,-543.045,-323.907)">
        <g transform="matrix(0,-1,-1,0,637.697,323.907)">
            <path d="M-94.653,-94.653C-146.928,-94.653 -189.305,-52.276 -189.305,-0.001C-189.305,52.275 -146.928,94.653 -94.653,94.653C-42.378,94.653 -0.001,52.275 -0.001,-0.001C-0.001,-52.276 -42.378,-94.653 -94.653,-94.653" style="fill:rgb(84,211,208);fill-rule:nonzero;"/>
        </g>
        <g transform="matrix(1,0,0,1,631.52,355.874)">
            <path d="M0,90.756L12.356,90.756C10.604,60.696 18.42,30.181 34.217,4.563C25.585,1.493 16.084,0 6.178,0C-3.728,0 -13.229,1.493 -21.861,4.563C-6.064,30.181 1.752,60.696 0,90.756" style="fill:rgb(252,236,219);fill-rule:nonzero;"/>
        </g>
        <g transform="matrix(1,0,0,1,675.561,414.807)">
            <path d="M0,16.07C11.741,12.746 22.513,6.228 31.087,-2.447C30.729,-5.111 30.228,-7.771 29.572,-10.417C23.906,-33.274 9.137,-47.627 -9.824,-54.37C-25.621,-28.752 -33.437,1.764 -31.685,31.823L-44.041,31.823C-42.289,1.764 -50.105,-28.752 -65.902,-54.37C-84.863,-47.627 -99.633,-33.274 -105.299,-10.417C-105.955,-7.771 -106.455,-5.111 -106.813,-2.447C-98.239,6.228 -87.467,12.746 -75.727,16.07C-86.535,16.169 -96.147,24.926 -101.722,35.52C-91.509,58.463 -68.566,70.44 -37.863,70.44C-7.161,70.44 15.782,58.463 25.995,35.52C20.421,24.925 10.809,16.169 0,16.07" style="fill:white;fill-rule:nonzero;"/>
        </g>
        <g transform="matrix(1,0,0,1,599.834,431.81)">
            <path d="M0,-0.933C-11.741,-4.257 -22.513,-10.775 -31.087,-19.45C-32.125,-11.718 -31.925,-3.947 -30.536,3.636C-30.494,3.867 -30.441,4.091 -30.397,4.32C-29.41,9.442 -27.928,14.174 -25.995,18.517C-20.421,7.923 -10.809,-0.834 0,-0.933" style="fill:rgb(252,236,219);fill-rule:nonzero;"/>
        </g>
        <g transform="matrix(1,0,0,1,702.828,445.678)">
            <path d="M0,-28.669C0.184,-28.177 0.359,-27.683 0.526,-27.185C0.359,-27.683 0.184,-28.177 0,-28.669M3.27,-10.232C4.658,-17.816 4.859,-25.586 3.82,-33.318C-4.754,-24.643 -15.526,-18.126 -27.267,-14.802C-16.458,-14.702 -6.846,-5.946 -1.272,4.649C0.661,0.306 2.143,-4.426 3.13,-9.548C3.174,-9.778 3.227,-10.001 3.27,-10.232" style="fill:rgb(252,236,219);fill-rule:nonzero;"/>
        </g>
        <g transform="matrix(0,-1,-1,0,603.77,420.218)">
            <path d="M-8,-8C-12.418,-8 -16,-4.418 -16,0C-16,4.418 -12.418,8 -8,8C-3.582,8 0,4.418 0,0C0,-4.418 -3.582,-8 -8,-8" style="fill:rgb(53,25,14);fill-rule:nonzero;"/>
        </g>
        <g transform="matrix(1,0,0,1,599.139,422.749)">
            <path d="M0,5.469C0,5.469 -0.077,5.341 -0.18,5.118C-0.287,4.918 -0.385,4.529 -0.398,4.104C-0.441,3.666 -0.348,3.16 -0.166,2.637C-0.056,2.387 0.055,2.118 0.224,1.881C0.372,1.628 0.577,1.412 0.773,1.189C0.996,0.993 1.211,0.787 1.464,0.639C1.7,0.468 1.97,0.359 2.22,0.248C2.484,0.163 2.733,0.076 2.985,0.048C3.232,0.005 3.469,0 3.687,0.016C3.9,0.01 4.099,0.056 4.269,0.096C4.438,0.125 4.583,0.182 4.699,0.235C4.931,0.338 5.053,0.416 5.053,0.416C5.053,0.416 4.926,0.507 4.725,0.632C4.524,0.75 4.255,0.936 3.965,1.13C3.382,1.538 2.75,2.042 2.187,2.603C1.624,3.165 1.118,3.797 0.711,4.381C0.517,4.675 0.335,4.907 0.215,5.138C0.09,5.349 0,5.469 0,5.469" style="fill:white;fill-rule:nonzero;"/>
        </g>
        <g transform="matrix(0,-1,-1,0,671.179,420.218)">
            <path d="M-8,-8C-12.418,-8 -16,-4.418 -16,0C-16,4.418 -12.418,8 -8,8C-3.582,8 0,4.418 0,0C0,-4.418 -3.582,-8 -8,-8" style="fill:rgb(53,25,14);fill-rule:nonzero;"/>
        </g>
        <g transform="matrix(1,0,0,1,666.548,422.749)">
            <path d="M0,5.469C0,5.469 -0.077,5.341 -0.18,5.118C-0.287,4.918 -0.385,4.529 -0.398,4.104C-0.441,3.666 -0.347,3.16 -0.166,2.637C-0.056,2.387 0.055,2.118 0.224,1.881C0.372,1.628 0.577,1.412 0.773,1.189C0.996,0.993 1.211,0.787 1.464,0.639C1.7,0.468 1.97,0.359 2.22,0.248C2.484,0.163 2.733,0.076 2.985,0.048C3.232,0.005 3.469,0 3.687,0.016C3.9,0.01 4.099,0.056 4.269,0.096C4.437,0.125 4.582,0.182 4.699,0.235C4.931,0.338 5.053,0.416 5.053,0.416C5.053,0.416 4.926,0.507 4.725,0.632C4.524,0.75 4.254,0.936 3.965,1.13C3.382,1.538 2.75,2.042 2.187,2.603C1.624,3.165 1.118,3.797 0.711,4.381C0.517,4.675 0.335,4.907 0.215,5.138C0.09,5.349 0,5.469 0,5.469" style="fill:white;fill-rule:nonzero;"/>
        </g>
        <g transform="matrix(1,0,0,1,626.031,454.498)">
            <path d="M0,-3.166C0,-7.071 23.333,-7.071 23.333,-3.166C23.333,0.739 18.11,3.905 11.667,3.905C5.223,3.905 0,0.739 0,-3.166" style="fill:rgb(255,168,29);fill-rule:nonzero;"/>
        </g>
        <g transform="matrix(1,0,0,1,631.166,338.832)">
            <path d="M0,17.668C1.714,13.638 3.427,9.608 5.141,5.579C5.833,3.952 6.55,2.286 7.777,1.015C11.486,-2.83 18.869,-0.906 21.041,3.975C23.213,8.856 20.602,14.998 16.022,17.748C11.441,20.498 5.507,20.25 0.589,18.163" style="fill:rgb(252,236,219);fill-rule:nonzero;"/>
        </g>
        <g transform="matrix(1,0,0,1,661.198,443.646)">
            <path d="M0,5.066C0,11.314 -47,11.314 -47,5.066C-47,-1.182 -36.479,-6.248 -23.5,-6.248C-10.521,-6.248 0,-1.182 0,5.066" style="fill:rgb(255,168,29);fill-rule:nonzero;"/>
        </g>
    </g>
</svg>
