<?xml version="1.0" encoding="UTF-8" standalone="no"?>
<!DOCTYPE svg PUBLIC "-//W3C//DTD SVG 1.1//EN" "http://www.w3.org/Graphics/SVG/1.1/DTD/svg11.dtd">
<svg width="100%" height="100%" viewBox="0 0 190 190" version="1.1" xmlns="http://www.w3.org/2000/svg" xmlns:xlink="http://www.w3.org/1999/xlink" xml:space="preserve" xmlns:serif="http://www.serif.com/" style="fill-rule:evenodd;clip-rule:evenodd;stroke-linecap:round;stroke-linejoin:round;stroke-miterlimit:10;">
    <g transform="matrix(0.961429,0,0,0.97393,4.59738,3.25865)">
        <rect x="-4.782" y="-3.346" width="196.899" height="194.367" style="fill:rgb(84,211,208);"/>
    </g>
    <g transform="matrix(1,0,0,1,-73.4663,-325.566)">
        <g transform="matrix(0,-1,-1,0,168.118,325.566)">
            <path d="M-94.652,-94.652C-146.927,-94.652 -189.304,-52.275 -189.304,-0C-189.304,52.275 -146.927,94.652 -94.652,94.652C-42.377,94.652 -0,52.275 -0,-0C-0,-52.275 -42.377,-94.652 -94.652,-94.652" style="fill:rgb(84,211,208);fill-rule:nonzero;"/>
        </g>
        <g transform="matrix(1,0,0,1,108.803,360.823)">
            <path d="M0,-9.545L16.439,-9.985C9.167,-14.871 1.398,-18.513 -6.968,-20.466C-12.176,-21.681 -16.157,-16.848 -15.462,-10.33C-14.595,-2.208 -12.984,5.241 -10.888,12.136L-7.226,-3.645C-6.441,-7.027 -3.471,-9.452 0,-9.545" style="fill:rgb(53,25,14);fill-rule:nonzero;"/>
        </g>
        <g transform="matrix(1,0,0,1,148.979,381.605)">
            <path d="M0,-8.974C-7.307,-17.537 -15.176,-25.017 -23.737,-30.768L-40.176,-30.327C-43.647,-30.234 -46.617,-27.809 -47.402,-24.427L-51.064,-8.646C-47.569,2.85 -42.724,12.809 -37.725,21.794L0,-8.974Z" style="fill:rgb(255,168,29);fill-rule:nonzero;"/>
        </g>
        <g transform="matrix(0.991406,-0.13082,-0.13082,-0.991406,121.962,405.206)">
            <path d="M-3.021,1.233C-7.41,12.759 -11.149,25.881 -10.374,41.659C-10.144,46.334 -6.691,49.346 -3.021,47.992C9.854,43.239 19.961,33.075 28.45,20.305L-3.021,1.233Z" style="fill:rgb(255,197,174);fill-rule:nonzero;"/>
        </g>
        <g transform="matrix(1,0,0,1,227.433,360.823)">
            <path d="M0,-9.545L-16.439,-9.985C-9.167,-14.871 -1.398,-18.513 6.968,-20.466C12.176,-21.681 16.157,-16.848 15.462,-10.33C14.595,-2.208 12.985,5.241 10.888,12.136L7.226,-3.645C6.441,-7.027 3.471,-9.452 0,-9.545" style="fill:rgb(53,25,14);fill-rule:nonzero;"/>
        </g>
        <g transform="matrix(1,0,0,1,187.257,381.605)">
            <path d="M0,-8.974C7.307,-17.537 15.176,-25.017 23.737,-30.768L40.176,-30.327C43.647,-30.234 46.617,-27.809 47.402,-24.427L51.064,-8.646C47.569,2.85 42.724,12.809 37.725,21.794L0,-8.974Z" style="fill:rgb(255,168,29);fill-rule:nonzero;"/>
        </g>
        <g transform="matrix(0.991406,0.13082,0.13082,-0.991406,214.274,405.206)">
            <path d="M3.021,1.233C7.41,12.759 11.149,25.881 10.374,41.659C10.144,46.334 6.691,49.346 3.021,47.992C-9.854,43.239 -19.961,33.075 -28.45,20.305L3.021,1.233Z" style="fill:rgb(255,197,174);fill-rule:nonzero;"/>
        </g>
        <g transform="matrix(1,0,0,1,227.878,447.769)">
            <path d="M0,-48.102C-11.187,-74.75 -33.526,-85.897 -60.247,-85.897C-86.968,-85.897 -109.307,-74.75 -120.493,-48.102C-124.272,-39.101 -128.037,-24.517 -127.72,-14.837C-126.608,19.099 -101.049,37.795 -60.247,37.795C-19.444,37.795 6.115,19.099 7.227,-14.837C7.544,-24.517 3.779,-39.101 0,-48.102" style="fill:rgb(255,168,29);fill-rule:nonzero;"/>
        </g>
        <g transform="matrix(1,0,0,1,173.116,466.552)">
            <path d="M0,-16.005C-1.795,-16.113 -3.623,-16.173 -5.484,-16.173C-7.009,-16.173 -8.511,-16.133 -9.992,-16.06C-8.808,-35.62 -75.638,-36.017 -81.108,-26.749C-78.53,-12.15 -67.652,-1.375 -56.533,5.217C-45.612,11.692 -33.297,16.269 -21.163,18.761C-21.149,18.716 -21.132,18.671 -21.117,18.627C-16.303,19.518 -11.024,20.012 -5.484,20.012C0.409,20.012 6.004,19.451 11.061,18.449C11.095,18.553 11.134,18.657 11.167,18.761C23.301,16.269 35.616,11.692 46.537,5.217C57.656,-1.375 68.534,-12.15 71.113,-26.749C65.642,-36.017 -1.198,-35.581 0,-16.005" style="fill:rgb(255,250,240);fill-rule:nonzero;"/>
        </g>
        <g transform="matrix(0,-1,-1,0,133.927,421.874)">
            <path d="M-8,-8C-12.418,-8 -16,-4.418 -16,0C-16,4.418 -12.418,8 -8,8C-3.582,8 0,4.418 0,0C0,-4.418 -3.582,-8 -8,-8" style="fill:rgb(53,25,14);fill-rule:nonzero;"/>
        </g>
        <g transform="matrix(1,0,0,1,129.296,424.404)">
            <path d="M0,5.47C0,5.47 -0.077,5.342 -0.18,5.119C-0.287,4.918 -0.385,4.53 -0.398,4.105C-0.441,3.667 -0.348,3.161 -0.166,2.638C-0.056,2.388 0.055,2.119 0.224,1.882C0.372,1.629 0.577,1.413 0.773,1.19C0.996,0.994 1.211,0.788 1.464,0.64C1.7,0.469 1.97,0.36 2.22,0.249C2.484,0.164 2.733,0.077 2.985,0.049C3.232,0.005 3.469,0 3.687,0.016C3.9,0.011 4.099,0.056 4.269,0.097C4.437,0.126 4.582,0.183 4.699,0.236C4.931,0.339 5.053,0.417 5.053,0.417C5.053,0.417 4.926,0.508 4.725,0.633C4.524,0.751 4.255,0.936 3.965,1.131C3.382,1.539 2.751,2.043 2.187,2.604C1.624,3.166 1.118,3.798 0.711,4.382C0.517,4.676 0.335,4.908 0.215,5.139C0.09,5.35 0,5.47 0,5.47" style="fill:white;fill-rule:nonzero;"/>
        </g>
        <g transform="matrix(0,-1,-1,0,201.336,421.874)">
            <path d="M-8,-8C-12.418,-8 -16,-4.418 -16,0C-16,4.418 -12.418,8 -8,8C-3.582,8 0,4.418 0,0C0,-4.418 -3.582,-8 -8,-8" style="fill:rgb(53,25,14);fill-rule:nonzero;"/>
        </g>
        <g transform="matrix(1,0,0,1,196.705,424.404)">
            <path d="M0,5.47C0,5.47 -0.077,5.342 -0.18,5.119C-0.287,4.918 -0.385,4.53 -0.398,4.105C-0.441,3.667 -0.347,3.161 -0.166,2.638C-0.056,2.388 0.055,2.119 0.224,1.882C0.372,1.629 0.577,1.413 0.773,1.19C0.996,0.994 1.211,0.788 1.464,0.64C1.7,0.469 1.97,0.36 2.22,0.249C2.484,0.164 2.733,0.077 2.985,0.049C3.232,0.005 3.469,0 3.687,0.016C3.9,0.011 4.099,0.056 4.269,0.097C4.437,0.126 4.583,0.183 4.699,0.236C4.931,0.339 5.053,0.417 5.053,0.417C5.053,0.417 4.926,0.508 4.725,0.633C4.524,0.751 4.255,0.936 3.965,1.131C3.382,1.539 2.751,2.043 2.187,2.604C1.624,3.166 1.118,3.798 0.711,4.382C0.517,4.676 0.335,4.908 0.215,5.139C0.09,5.35 0,5.47 0,5.47" style="fill:white;fill-rule:nonzero;"/>
        </g>
        <g transform="matrix(0,-1,-1,0,167.631,438.561)">
            <path d="M-18.892,-18.892C-27.042,-18.892 -33.649,-10.434 -33.649,0C-33.649,10.434 -27.042,18.892 -18.892,18.892C-10.742,18.892 -4.135,10.434 -4.135,0C-4.135,-10.434 -10.742,-18.892 -18.892,-18.892" style="fill:rgb(255,250,240);fill-rule:nonzero;"/>
        </g>
        <g transform="matrix(1,0,0,1,166.913,461.398)">
            <path d="M0,-11.019C0.437,-10.146 0,-7.113 0,-7.113C0,-7.113 -3.16,0 -12.114,-3.139" style="fill:none;fill-rule:nonzero;stroke:rgb(153,130,113);stroke-width:3px;"/>
        </g>
        <g transform="matrix(1,0,0,1,168.35,461.398)">
            <path d="M0,-11.019C-0.437,-10.146 0,-7.113 0,-7.113C0,-7.113 3.16,0 12.114,-3.139" style="fill:none;fill-rule:nonzero;stroke:rgb(153,130,113);stroke-width:3px;"/>
        </g>
        <g transform="matrix(1,0,0,1,173.318,450.696)">
            <path d="M0,-9L-11.533,-9C-13.115,-9 -14.09,-7.579 -13.269,-6.466C-11.306,-3.804 -8.094,0 -5.766,0C-3.438,0 -0.227,-3.804 1.736,-6.466C2.557,-7.579 1.582,-9 0,-9" style="fill:rgb(53,25,14);fill-rule:nonzero;"/>
        </g>
    </g>
</svg>
