<?xml version="1.0" encoding="UTF-8" standalone="no"?>
<!DOCTYPE svg PUBLIC "-//W3C//DTD SVG 1.1//EN" "http://www.w3.org/Graphics/SVG/1.1/DTD/svg11.dtd">
<svg width="100%" height="100%" viewBox="0 0 190 190" version="1.1" xmlns="http://www.w3.org/2000/svg" xmlns:xlink="http://www.w3.org/1999/xlink" xml:space="preserve" xmlns:serif="http://www.serif.com/" style="fill-rule:evenodd;clip-rule:evenodd;stroke-linecap:round;stroke-linejoin:round;stroke-miterlimit:10;">
    <g transform="matrix(0.961429,0,0,0.97393,4.59738,3.25865)">
        <rect x="-4.782" y="-3.346" width="196.899" height="194.367" style="fill:rgb(255,209,108);"/>
    </g>
    <g transform="matrix(1,0,0,1,-547.751,-548.434)">
        <g transform="matrix(0,-1,-1,0,642.403,548.434)">
            <path d="M-94.653,-94.653C-146.928,-94.653 -189.305,-52.276 -189.305,-0.001C-189.305,52.275 -146.928,94.653 -94.653,94.653C-42.378,94.653 -0.001,52.275 -0.001,-0.001C-0.001,-52.276 -42.378,-94.653 -94.653,-94.653" style="fill:rgb(255,209,108);fill-rule:nonzero;"/>
        </g>
        <g transform="matrix(0,-1,-1,0,571.985,606.588)">
            <path d="M-21.623,-21.623C-33.565,-21.623 -43.246,-11.942 -43.246,0C-43.246,11.942 -33.565,21.623 -21.623,21.623C-9.681,21.623 0,11.942 0,0C0,-11.942 -9.681,-21.623 -21.623,-21.623" style="fill:rgb(201,110,49);fill-rule:nonzero;"/>
        </g>
        <g transform="matrix(0,-1,-1,0,574.943,618.669)">
            <path d="M-12.5,-12.5C-19.404,-12.5 -25,-6.904 -25,0C-25,6.904 -19.404,12.5 -12.5,12.5C-5.596,12.5 0,6.904 0,0C0,-6.904 -5.596,-12.5 -12.5,-12.5" style="fill:rgb(255,197,174);fill-rule:nonzero;"/>
        </g>
        <g transform="matrix(0,1,1,0,712.821,606.588)">
            <path d="M21.623,-21.623C33.565,-21.623 43.246,-11.942 43.246,0C43.246,11.942 33.565,21.623 21.623,21.623C9.681,21.623 0,11.942 0,0C0,-11.942 9.681,-21.623 21.623,-21.623" style="fill:rgb(201,110,49);fill-rule:nonzero;"/>
        </g>
        <g transform="matrix(0,1,1,0,709.862,618.669)">
            <path d="M12.5,-12.5C19.404,-12.5 25,-6.904 25,0C25,6.904 19.404,12.5 12.5,12.5C5.596,12.5 0,6.904 0,0C0,-6.904 5.596,-12.5 12.5,-12.5" style="fill:rgb(255,197,174);fill-rule:nonzero;"/>
        </g>
        <g transform="matrix(1,0,0,1,665.938,710.816)">
            <path d="M0,-95.759C-10.445,-94.316 -19.829,-87.053 -23.535,-77.959C-27.241,-87.053 -36.625,-94.316 -47.07,-95.759C-61.26,-97.719 -75.81,-90.194 -83.663,-78.894C-89.526,-70.458 -91.981,-60.298 -91.795,-50.159C-85.594,-17.978 -60.049,1.96 -23.535,1.96C12.979,1.96 38.525,-17.978 44.725,-50.159C44.911,-60.298 42.456,-70.458 36.593,-78.894C28.74,-90.194 14.19,-97.719 0,-95.759" style="fill:rgb(255,228,204);fill-rule:nonzero;"/>
        </g>
        <g transform="matrix(1,0,0,1,709.839,612.141)">
            <path d="M0,16.776C-8.245,-16.487 -35.77,-31.74 -67.436,-31.74C-99.101,-31.74 -126.626,-16.487 -134.871,16.776C-137.431,27.101 -137.702,37.635 -135.835,47.833C-135.793,48.063 -135.74,48.287 -135.696,48.516C-135.881,38.377 -133.427,28.216 -127.563,19.78C-119.71,8.481 -105.161,0.956 -90.971,2.916C-80.526,4.359 -71.142,11.622 -67.436,20.716C-63.73,11.622 -54.345,4.359 -43.901,2.916C-29.711,0.956 -15.161,8.481 -7.308,19.78C-1.444,28.216 1.01,38.377 0.824,48.516C0.869,48.287 0.922,48.063 0.964,47.833C2.831,37.635 2.559,27.101 0,16.776" style="fill:rgb(201,110,49);fill-rule:nonzero;"/>
        </g>
        <g transform="matrix(0,-1,-1,0,608.699,644.745)">
            <path d="M-8,-8C-12.418,-8 -16,-4.418 -16,0C-16,4.418 -12.418,8 -8,8C-3.582,8 0,4.418 0,0C0,-4.418 -3.582,-8 -8,-8" style="fill:rgb(53,25,14);fill-rule:nonzero;"/>
        </g>
        <g transform="matrix(1,0,0,1,604.067,647.275)">
            <path d="M0,5.469C0,5.469 -0.077,5.341 -0.18,5.118C-0.287,4.917 -0.385,4.529 -0.398,4.104C-0.442,3.666 -0.348,3.16 -0.167,2.637C-0.056,2.387 0.055,2.118 0.224,1.881C0.372,1.628 0.577,1.412 0.773,1.189C0.996,0.993 1.211,0.787 1.464,0.639C1.7,0.468 1.97,0.359 2.22,0.248C2.484,0.163 2.733,0.076 2.985,0.048C3.232,0.004 3.469,0 3.687,0.015C3.9,0.01 4.099,0.055 4.269,0.096C4.437,0.125 4.582,0.182 4.699,0.235C4.931,0.338 5.053,0.416 5.053,0.416C5.053,0.416 4.926,0.507 4.725,0.632C4.524,0.75 4.254,0.935 3.965,1.13C3.382,1.538 2.75,2.041 2.187,2.603C1.624,3.165 1.118,3.797 0.711,4.381C0.517,4.675 0.334,4.907 0.215,5.138C0.09,5.349 0,5.469 0,5.469" style="fill:white;fill-rule:nonzero;"/>
        </g>
        <g transform="matrix(0,-1,-1,0,676.107,644.745)">
            <path d="M-8,-8C-12.418,-8 -16,-4.418 -16,0C-16,4.418 -12.418,8 -8,8C-3.582,8 0,4.418 0,0C0,-4.418 -3.582,-8 -8,-8" style="fill:rgb(53,25,14);fill-rule:nonzero;"/>
        </g>
        <g transform="matrix(1,0,0,1,671.476,647.275)">
            <path d="M0,5.469C0,5.469 -0.077,5.341 -0.18,5.118C-0.287,4.917 -0.385,4.529 -0.398,4.104C-0.441,3.666 -0.347,3.16 -0.166,2.637C-0.056,2.387 0.055,2.118 0.224,1.881C0.372,1.628 0.577,1.412 0.773,1.189C0.996,0.993 1.211,0.787 1.464,0.639C1.7,0.468 1.97,0.359 2.22,0.248C2.484,0.163 2.733,0.076 2.985,0.048C3.232,0.004 3.469,0 3.687,0.015C3.9,0.01 4.099,0.055 4.269,0.096C4.437,0.125 4.582,0.182 4.699,0.235C4.931,0.338 5.053,0.416 5.053,0.416C5.053,0.416 4.926,0.507 4.725,0.632C4.524,0.75 4.254,0.935 3.965,1.13C3.382,1.538 2.751,2.041 2.187,2.603C1.624,3.165 1.118,3.797 0.711,4.381C0.517,4.675 0.335,4.907 0.215,5.138C0.09,5.349 0,5.469 0,5.469" style="fill:white;fill-rule:nonzero;"/>
        </g>
        <g transform="matrix(1,0,0,1,641.684,694.275)">
            <path d="M0,-17.023C0.437,-16.15 0,-7.113 0,-7.113C0,-7.113 -3.16,0 -12.114,-3.14" style="fill:none;fill-rule:nonzero;stroke:rgb(153,130,113);stroke-width:3px;"/>
        </g>
        <g transform="matrix(1,0,0,1,643.122,694.275)">
            <path d="M0,-17.023C-0.437,-16.15 0,-7.113 0,-7.113C0,-7.113 3.16,0 12.114,-3.14" style="fill:none;fill-rule:nonzero;stroke:rgb(153,130,113);stroke-width:3px;"/>
        </g>
        <g transform="matrix(0,-1,-1,0,642.403,668.501)">
            <path d="M-5.5,-5.5C-8.538,-5.5 -11,-3.038 -11,0C-11,3.038 -8.538,5.5 -5.5,5.5C-2.463,5.5 0,3.038 0,0C0,-3.038 -2.463,-5.5 -5.5,-5.5" style="fill:rgb(153,130,113);fill-rule:nonzero;"/>
        </g>
    </g>
</svg>
