<?xml version="1.0" encoding="UTF-8" standalone="no"?>
<!DOCTYPE svg PUBLIC "-//W3C//DTD SVG 1.1//EN" "http://www.w3.org/Graphics/SVG/1.1/DTD/svg11.dtd">
<svg width="100%" height="100%" viewBox="0 0 190 190" version="1.1" xmlns="http://www.w3.org/2000/svg" xmlns:xlink="http://www.w3.org/1999/xlink" xml:space="preserve" xmlns:serif="http://www.serif.com/" style="fill-rule:evenodd;clip-rule:evenodd;stroke-linejoin:round;stroke-miterlimit:2;">
    <g transform="matrix(0.961429,0,0,0.97393,4.59738,3.25865)">
        <rect x="-4.782" y="-3.346" width="196.899" height="194.367" style="fill:rgb(72,158,211);"/>
    </g>
    <g transform="matrix(1,0,0,1,-543.045,-100.825)">
        <g transform="matrix(0,-1,-1,0,637.697,100.825)">
            <path d="M-94.653,-94.653C-146.928,-94.653 -189.305,-52.276 -189.305,-0.001C-189.305,52.275 -146.928,94.653 -94.653,94.653C-42.378,94.653 -0.001,52.275 -0.001,-0.001C-0.001,-52.276 -42.378,-94.653 -94.653,-94.653" style="fill:rgb(72,158,211);fill-rule:nonzero;"/>
        </g>
        <g transform="matrix(0.947384,0.3201,0.3201,-0.947384,571.646,161.593)">
            <path d="M7.004,-4.303C2.81,5.562 -0.547,16.323 0.406,28.934C0.675,32.508 3.767,35.039 7.004,34.329C18.454,31.815 27.833,24.84 36.263,15.31L7.004,-4.303Z" style="fill:rgb(193,116,116);fill-rule:nonzero;"/>
        </g>
        <g transform="matrix(0.947384,-0.3201,-0.3201,-0.947384,704.008,161.593)">
            <path d="M-7.004,-4.303C-2.81,5.562 0.547,16.323 -0.406,28.934C-0.675,32.508 -3.767,35.039 -7.004,34.329C-18.454,31.815 -27.833,24.84 -36.263,15.31L-7.004,-4.303Z" style="fill:rgb(193,116,116);fill-rule:nonzero;"/>
        </g>
        <g transform="matrix(1,0,0,1,637.698,139.076)">
            <path d="M0,119.807C-34.739,119.807 -63.463,98.61 -68.232,71.043C-68.078,66.323 -67.342,61.633 -65.93,57.153C-65.552,55.952 -65.125,54.765 -64.65,53.597C-63.46,50.677 -61.96,47.873 -60.128,45.237C-59.637,44.53 -59.12,43.839 -58.579,43.164C-57.496,41.813 -56.315,40.527 -55.051,39.316C-54.102,38.408 -53.107,37.543 -52.07,36.725C-51.033,35.907 -49.954,35.137 -48.84,34.418C-45.126,32.023 -41.017,30.205 -36.728,29.139C-35.441,28.819 -34.138,28.567 -32.825,28.388C-31.512,28.208 -30.188,28.101 -28.859,28.07C-27.088,28.03 -25.309,28.127 -23.535,28.372C-22.229,28.552 -20.94,28.824 -19.677,29.178C-17.782,29.71 -15.944,30.428 -14.195,31.308C-13.028,31.894 -11.901,32.552 -10.822,33.274C-9.743,33.995 -8.712,34.78 -7.738,35.621C-4.33,38.565 -1.621,42.193 0,46.172C1.621,42.193 4.33,38.565 7.738,35.621C8.712,34.78 9.743,33.995 10.822,33.274C11.901,32.552 13.028,31.894 14.195,31.308C15.944,30.428 17.782,29.71 19.677,29.178C20.94,28.824 22.229,28.552 23.535,28.372C37.725,26.412 52.275,33.937 60.128,45.237C61.227,46.818 62.207,48.461 63.072,50.152C63.432,50.857 63.772,51.57 64.093,52.291C65.056,54.454 65.842,56.687 66.462,58.966C66.959,60.789 67.349,62.642 67.637,64.514C67.83,65.762 67.977,67.018 68.081,68.278C68.157,69.198 68.201,70.12 68.232,71.043C63.463,98.61 34.738,119.807 0,119.807M67.436,42.232C59.19,8.969 31.666,-6.284 0,-6.284C-31.666,-6.284 -59.19,8.969 -67.436,42.232C-69.995,52.557 -70.267,63.091 -68.4,73.289C-68.357,73.519 -68.304,73.743 -68.26,73.972C-62.06,106.153 -36.514,126.091 0,126.091C36.514,126.091 62.06,106.153 68.26,73.972C68.304,73.743 68.357,73.519 68.4,73.289C70.267,63.091 69.995,52.557 67.436,42.232" style="fill:rgb(193,116,116);fill-rule:nonzero;"/>
        </g>
        <g transform="matrix(1,0,0,1,637.698,165.488)">
            <path d="M0,100.399C34.738,100.399 63.463,80.203 68.232,52.636C68.201,51.713 68.157,42.785 68.081,41.866C67.977,40.605 67.83,39.349 67.637,38.102C67.349,36.23 66.959,34.377 66.462,32.554C65.635,29.515 64.513,26.559 63.072,23.74C62.207,22.048 61.227,20.406 60.128,18.824C52.275,7.525 37.725,0 23.535,1.96C22.229,2.14 20.94,2.411 19.677,2.766C17.782,3.297 15.944,4.016 14.195,4.896C13.028,5.482 11.901,6.14 10.822,6.861C9.743,7.583 8.712,8.368 7.738,9.209C4.33,12.153 1.621,15.781 0,19.76C-1.621,15.781 -4.33,12.153 -7.738,9.209C-8.712,8.368 -9.743,7.583 -10.822,6.861C-11.901,6.14 -13.028,5.482 -14.195,4.896C-15.944,4.016 -17.782,3.297 -19.677,2.766C-20.94,2.411 -22.229,2.14 -23.535,1.96C-25.309,1.715 -27.088,1.618 -28.859,1.658C-31.516,1.719 -34.154,2.087 -36.728,2.727C-41.017,3.793 -45.127,5.61 -48.84,8.006C-51.068,9.443 -53.154,11.089 -55.051,12.904C-56.315,14.115 -57.496,15.401 -58.579,16.751C-59.12,17.427 -59.637,18.118 -60.128,18.824C-61.96,21.461 -63.46,24.265 -64.65,27.185C-65.125,28.353 -65.552,29.539 -65.93,30.741C-67.342,35.221 -68.078,47.915 -68.232,52.636C-63.463,80.203 -34.739,100.399 0,100.399" style="fill:rgb(255,249,243);fill-rule:nonzero;"/>
        </g>
        <g transform="matrix(0,-1,-1,0,603.074,179.467)">
            <path d="M-24,-24C-37.255,-24 -48,-13.255 -48,0C-48,13.255 -37.255,24 -24,24C-10.745,24 0,13.255 0,0C0,-13.255 -10.745,-24 -24,-24" style="fill:rgb(242,218,192);fill-rule:nonzero;"/>
        </g>
        <g transform="matrix(0,-1,-1,0,672.321,179.467)">
            <path d="M-24,-24C-37.255,-24 -48,-13.255 -48,0C-48,13.255 -37.255,24 -24,24C-10.745,24 0,13.255 0,0C0,-13.255 -10.745,-24 -24,-24" style="fill:rgb(242,218,192);fill-rule:nonzero;"/>
        </g>
        <g transform="matrix(0,-1,-1,0,603.77,197.136)">
            <path d="M-8,-8C-12.418,-8 -16,-4.418 -16,0C-16,4.418 -12.418,8 -8,8C-3.582,8 0,4.418 0,0C0,-4.418 -3.582,-8 -8,-8" style="fill:rgb(53,25,14);fill-rule:nonzero;"/>
        </g>
        <g transform="matrix(1,0,0,1,599.139,199.667)">
            <path d="M0,5.469C0,5.469 -0.077,5.341 -0.18,5.118C-0.287,4.918 -0.385,4.529 -0.398,4.104C-0.441,3.666 -0.347,3.16 -0.166,2.637C-0.056,2.387 0.055,2.118 0.224,1.881C0.372,1.628 0.577,1.412 0.773,1.189C0.996,0.993 1.211,0.787 1.464,0.639C1.7,0.468 1.97,0.359 2.22,0.248C2.484,0.163 2.733,0.076 2.985,0.049C3.232,0.005 3.469,0 3.687,0.016C3.9,0.01 4.099,0.056 4.269,0.096C4.437,0.125 4.582,0.182 4.699,0.235C4.931,0.338 5.053,0.416 5.053,0.416C5.053,0.416 4.926,0.507 4.725,0.632C4.524,0.75 4.254,0.935 3.965,1.13C3.382,1.538 2.75,2.042 2.187,2.603C1.624,3.165 1.118,3.797 0.711,4.381C0.517,4.675 0.335,4.907 0.215,5.138C0.09,5.349 0,5.469 0,5.469" style="fill:white;fill-rule:nonzero;"/>
        </g>
        <g transform="matrix(0,-1,-1,0,671.179,197.136)">
            <path d="M-8,-8C-12.418,-8 -16,-4.418 -16,0C-16,4.418 -12.418,8 -8,8C-3.582,8 0,4.418 0,0C0,-4.418 -3.582,-8 -8,-8" style="fill:rgb(53,25,14);fill-rule:nonzero;"/>
        </g>
        <g transform="matrix(1,0,0,1,666.548,199.667)">
            <path d="M0,5.469C0,5.469 -0.077,5.341 -0.18,5.118C-0.287,4.918 -0.385,4.529 -0.398,4.104C-0.441,3.666 -0.347,3.16 -0.166,2.637C-0.056,2.387 0.055,2.118 0.224,1.881C0.372,1.628 0.577,1.412 0.773,1.189C0.996,0.993 1.211,0.787 1.464,0.639C1.7,0.468 1.97,0.359 2.22,0.248C2.484,0.163 2.733,0.076 2.985,0.049C3.232,0.005 3.469,0 3.687,0.016C3.9,0.01 4.099,0.056 4.269,0.096C4.437,0.125 4.582,0.182 4.699,0.235C4.931,0.338 5.053,0.416 5.053,0.416C5.053,0.416 4.926,0.507 4.725,0.632C4.524,0.75 4.254,0.935 3.965,1.13C3.382,1.538 2.75,2.042 2.187,2.603C1.624,3.165 1.118,3.797 0.711,4.381C0.517,4.675 0.335,4.907 0.215,5.138C0.09,5.349 0,5.469 0,5.469" style="fill:white;fill-rule:nonzero;"/>
        </g>
        <g transform="matrix(0,-1,-1,0,635.58,224.028)">
            <path d="M-9.308,-13.542C-16.699,-13.542 -26.925,-8.427 -26.925,-2.117C-26.925,4.192 -16.699,9.308 -9.308,9.308C-1.917,9.308 4.075,4.192 4.075,-2.117C4.075,-8.427 -1.917,-13.542 -9.308,-13.542" style="fill:rgb(255,209,108);fill-rule:nonzero;"/>
        </g>
        <g transform="matrix(1,0,0,1,638.079,160.632)">
            <path d="M0,24.778C-13.517,14.927 -31.774,11.923 -47.735,16.925C-53.754,18.811 -59.428,21.752 -65.551,23.266C-71.675,24.78 -78.654,24.656 -83.692,20.861C-74.084,22.296 -67.733,17.972 -59.382,13.009C-51.032,8.046 -42.575,2.417 -32.909,1.452C-18.337,-0.002 -2.429,10.336 0,24.778" style="fill:rgb(142,79,79);fill-rule:nonzero;"/>
        </g>
        <g transform="matrix(1,0,0,1,637.317,160.632)">
            <path d="M0,24.778C13.517,14.927 31.774,11.923 47.735,16.925C53.754,18.811 59.428,21.752 65.551,23.266C71.675,24.78 78.654,24.656 83.692,20.861C74.084,22.296 67.733,17.972 59.383,13.009C51.032,8.046 42.575,2.417 32.909,1.452C18.337,-0.002 2.429,10.336 0,24.778" style="fill:rgb(142,79,79);fill-rule:nonzero;"/>
        </g>
    </g>
</svg>
