<?xml version="1.0" encoding="UTF-8" standalone="no"?>
<!DOCTYPE svg PUBLIC "-//W3C//DTD SVG 1.1//EN" "http://www.w3.org/Graphics/SVG/1.1/DTD/svg11.dtd">
<svg width="100%" height="100%" viewBox="0 0 190 190" version="1.1" xmlns="http://www.w3.org/2000/svg" xmlns:xlink="http://www.w3.org/1999/xlink" xml:space="preserve" xmlns:serif="http://www.serif.com/" style="fill-rule:evenodd;clip-rule:evenodd;stroke-miterlimit:10;">
    <g transform="matrix(0.961429,0,0,0.97393,4.59738,3.25865)">
        <rect x="-4.782" y="-3.346" width="196.899" height="194.367" style="fill:rgb(255,184,203);"/>
    </g>
    <g transform="matrix(1,0,0,1,-305.348,-543.328)">
        <g transform="matrix(0,-1,-1,0,400,543.328)">
            <path d="M-94.652,-94.652C-146.927,-94.652 -189.304,-52.275 -189.304,-0C-189.304,52.275 -146.927,94.652 -94.652,94.652C-42.377,94.652 -0,52.275 -0,-0C-0,-52.275 -42.377,-94.652 -94.652,-94.652" style="fill:rgb(255,184,203);fill-rule:nonzero;"/>
        </g>
        <g transform="matrix(0,-1,-1,0,343.216,569.034)">
            <path d="M-21.623,-21.623C-33.565,-21.623 -43.246,-11.942 -43.246,0C-43.246,11.942 -33.565,21.623 -21.623,21.623C-9.681,21.623 0,11.942 0,0C0,-11.942 -9.681,-21.623 -21.623,-21.623" style="fill-rule:nonzero;"/>
        </g>
        <g transform="matrix(0,-1,-1,0,343.216,569.034)">
            <circle cx="-21.623" cy="0" r="21.623" style="fill:none;stroke:black;stroke-width:3px;"/>
        </g>
        <g transform="matrix(0,-1,-1,0,346.174,583.194)">
            <path d="M-10.422,-10.422C-16.178,-10.422 -20.844,-5.756 -20.844,0C-20.844,5.756 -16.178,10.422 -10.422,10.422C-4.666,10.422 0,5.756 0,0C0,-5.756 -4.666,-10.422 -10.422,-10.422" style="fill:rgb(255,197,174);fill-rule:nonzero;"/>
        </g>
        <g transform="matrix(0,1,1,0,456.035,569.034)">
            <path d="M21.623,-21.623C33.565,-21.623 43.246,-11.942 43.246,0C43.246,11.942 33.565,21.623 21.623,21.623C9.681,21.623 0,11.942 0,0C0,-11.942 9.681,-21.623 21.623,-21.623" style="fill-rule:nonzero;"/>
        </g>
        <g transform="matrix(0,1,1,0,456.035,569.034)">
            <circle cx="21.623" cy="0" r="21.623" style="fill:none;stroke:black;stroke-width:3px;"/>
        </g>
        <g transform="matrix(0,1,1,0,453.077,583.194)">
            <path d="M10.422,-10.422C16.178,-10.422 20.844,-5.756 20.844,0C20.844,5.756 16.178,10.422 10.422,10.422C4.666,10.422 0,5.756 0,0C0,-5.756 4.666,-10.422 10.422,-10.422" style="fill:rgb(255,197,174);fill-rule:nonzero;"/>
        </g>
        <g transform="matrix(0,-1,-1,0,343.216,569.034)">
            <path d="M-21.623,-21.623C-33.565,-21.623 -43.246,-11.942 -43.246,0C-43.246,11.942 -33.565,21.623 -21.623,21.623C-9.681,21.623 0,11.942 0,0C0,-11.942 -9.681,-21.623 -21.623,-21.623" style="fill-rule:nonzero;"/>
        </g>
        <g transform="matrix(0,-1,-1,0,343.216,569.034)">
            <circle cx="-21.623" cy="0" r="21.623" style="fill:none;stroke:black;stroke-width:3px;"/>
        </g>
        <g transform="matrix(0,-1,-1,0,346.174,583.194)">
            <path d="M-10.422,-10.422C-16.178,-10.422 -20.844,-5.756 -20.844,0C-20.844,5.756 -16.178,10.422 -10.422,10.422C-4.666,10.422 0,5.756 0,0C0,-5.756 -4.666,-10.422 -10.422,-10.422" style="fill:rgb(255,197,174);fill-rule:nonzero;"/>
        </g>
        <g transform="matrix(0,1,1,0,456.035,569.034)">
            <path d="M21.623,-21.623C33.565,-21.623 43.246,-11.942 43.246,0C43.246,11.942 33.565,21.623 21.623,21.623C9.681,21.623 0,11.942 0,0C0,-11.942 9.681,-21.623 21.623,-21.623" style="fill-rule:nonzero;"/>
        </g>
        <g transform="matrix(0,1,1,0,456.035,569.034)">
            <circle cx="21.623" cy="0" r="21.623" style="fill:none;stroke:black;stroke-width:3px;"/>
        </g>
        <g transform="matrix(0,1,1,0,453.077,583.194)">
            <path d="M10.422,-10.422C16.178,-10.422 20.844,-5.756 20.844,0C20.844,5.756 16.178,10.422 10.422,10.422C4.666,10.422 0,5.756 0,0C0,-5.756 4.666,-10.422 10.422,-10.422" style="fill:rgb(255,197,174);fill-rule:nonzero;"/>
        </g>
        <g transform="matrix(1,0,0,1,428.853,702.421)">
            <path d="M0,-123.006C-8.962,-126.536 -18.841,-128.503 -29.228,-128.503C-69.899,-128.503 -102.869,-98.506 -102.869,-61.503C-102.869,-24.5 -69.899,5.497 -29.228,5.497C2.194,5.497 29.003,-12.414 39.579,-37.621C42.692,-45.042 44.413,-53.087 44.413,-61.503C44.413,-89.055 26.128,-112.714 0,-123.006" style="fill:white;fill-rule:nonzero;"/>
        </g>
        <g transform="matrix(-0.0612245,-0.998124,-0.998124,0.0612245,352.917,612.828)">
            <path d="M-25.999,-33.189C-40.688,-32.288 -54.132,-19.596 -55.205,-3.881C-56.362,13.08 -42.8,25.164 -25.999,22.066C-10.368,19.185 0.749,4.289 -0.154,-10.424C-0.998,-24.177 -12.212,-34.035 -25.999,-33.189" style="fill-rule:nonzero;"/>
        </g>
        <g transform="matrix(-0.0612245,0.998124,0.998124,0.0612245,446.335,612.828)">
            <path d="M25.999,-33.189C40.688,-32.288 54.132,-19.596 55.205,-3.881C56.362,13.08 42.8,25.164 25.999,22.066C10.368,19.185 -0.749,4.289 0.154,-10.424C0.997,-24.176 12.212,-34.035 25.999,-33.189" style="fill-rule:nonzero;"/>
        </g>
        <g transform="matrix(0,-1,-1,0,365.921,637.613)">
            <circle cx="-8" cy="0" r="8" style="fill:none;stroke:white;stroke-width:2px;"/>
        </g>
        <g transform="matrix(1,0,0,1,361.29,640.144)">
            <path d="M0,5.469C0,5.469 -0.077,5.341 -0.18,5.118C-0.287,4.918 -0.385,4.529 -0.398,4.104C-0.441,3.666 -0.348,3.16 -0.166,2.637C-0.056,2.387 0.055,2.118 0.224,1.881C0.372,1.628 0.577,1.412 0.773,1.189C0.996,0.993 1.211,0.787 1.464,0.639C1.7,0.468 1.97,0.359 2.22,0.248C2.484,0.163 2.733,0.076 2.985,0.048C3.232,0.005 3.469,0 3.687,0.015C3.9,0.01 4.099,0.056 4.269,0.096C4.437,0.125 4.582,0.182 4.699,0.235C4.931,0.338 5.053,0.416 5.053,0.416C5.053,0.416 4.926,0.507 4.725,0.632C4.524,0.75 4.254,0.935 3.965,1.13C3.382,1.538 2.75,2.041 2.187,2.603C1.624,3.165 1.118,3.797 0.711,4.381C0.517,4.675 0.335,4.907 0.215,5.138C0.09,5.349 0,5.469 0,5.469" style="fill:white;fill-rule:nonzero;"/>
        </g>
        <g transform="matrix(0,-1,-1,0,433.33,637.613)">
            <circle cx="-8" cy="0" r="8" style="fill:none;stroke:white;stroke-width:2px;"/>
        </g>
        <g transform="matrix(1,0,0,1,428.699,640.144)">
            <path d="M0,5.469C0,5.469 -0.077,5.341 -0.18,5.118C-0.287,4.918 -0.385,4.529 -0.398,4.104C-0.441,3.666 -0.348,3.16 -0.166,2.637C-0.056,2.387 0.055,2.118 0.224,1.881C0.372,1.628 0.577,1.412 0.773,1.189C0.996,0.993 1.211,0.787 1.464,0.639C1.7,0.468 1.97,0.359 2.22,0.248C2.484,0.163 2.733,0.076 2.985,0.048C3.232,0.005 3.469,0 3.687,0.015C3.9,0.01 4.099,0.056 4.269,0.096C4.437,0.125 4.582,0.182 4.699,0.235C4.931,0.338 5.053,0.416 5.053,0.416C5.053,0.416 4.926,0.507 4.725,0.632C4.524,0.75 4.254,0.935 3.965,1.13C3.382,1.538 2.75,2.041 2.187,2.603C1.624,3.165 1.118,3.797 0.711,4.381C0.517,4.675 0.335,4.907 0.215,5.138C0.09,5.349 0,5.469 0,5.469" style="fill:white;fill-rule:nonzero;"/>
        </g>
        <g transform="matrix(1,0,0,1,398.907,677.137)">
            <path d="M0,-11.019C0.437,-10.146 0,-7.113 0,-7.113C0,-7.113 -3.16,0 -12.114,-3.139" style="fill:none;fill-rule:nonzero;stroke:black;stroke-width:3px;stroke-linecap:round;stroke-linejoin:round;"/>
        </g>
        <g transform="matrix(1,0,0,1,400.345,677.137)">
            <path d="M0,-11.019C-0.437,-10.146 0,-7.113 0,-7.113C0,-7.113 3.16,0 12.114,-3.139" style="fill:none;fill-rule:nonzero;stroke:black;stroke-width:3px;stroke-linecap:round;stroke-linejoin:round;"/>
        </g>
        <g transform="matrix(1,0,0,1,407.711,668.307)">
            <path d="M0,-14.746L-16.331,-14.746C-18.572,-14.746 -19.952,-10.733 -18.789,-9.156C-16.01,-5.387 -11.462,0 -8.165,0C-4.869,0 -0.321,-5.387 2.458,-9.156C3.621,-10.733 2.24,-14.746 0,-14.746" style="fill-rule:nonzero;"/>
        </g>
    </g>
</svg>
